<svg xmlns="http://www.w3.org/2000/svg" viewBox="0 0 64 64" id="blueprint"><path d="M61 17H12v-5a1 1 0 0 0-1-1H7a5 5 0 0 0-5 5v38a5 5 0 0 0 5 5h54a1 1 0 0 0 1-1V18a1 1 0 0 0-1-1ZM4 16a3.009 3.009 0 0 1 3-3h3v36H7a4.985 4.985 0 0 0-3 1Zm52 41h-6v-4h4v-2h-4v-2h2v-2h-2v-2h2v-2h-2v-2h4v-2h-4v-2h2v-2h-2v-2h2v-2h-2v-2h4v-2h-4v-4h6Zm4 0h-2V22a1 1 0 0 0-1-1h-8a1 1 0 0 0-1 1v35H7a3 3 0 0 1 0-6h4a1 1 0 0 0 1-1V19h48Z"></path><path d="M19 15h27a1 1 0 0 0 .406-.086l9-4a1 1 0 0 0 0-1.828l-9-4A1 1 0 0 0 46 5H19a5 5 0 0 0 0 10zm6-4h20v2H25zm22-3.461 2 .889v3.144l-2 .889zM45 9H25V7h20zm-22 4h-1V7h1zm28-2.317V9.317l1.538.683zM19 7h1v6h-1a3 3 0 0 1 0-6zm-2.142 33.99 2.682.383a10.96 10.96 0 0 0 .678 1.639l-1.624 2.166a1 1 0 0 0 .093 1.307l2.828 2.828a1 1 0 0 0 1.307.093l2.166-1.624a10.96 10.96 0 0 0 1.639.678l.383 2.682A1 1 0 0 0 28 52h4a1 1 0 0 0 .99-.858l.383-2.682a10.96 10.96 0 0 0 1.639-.678l2.166 1.624a1 1 0 0 0 1.307-.093l2.828-2.828a1 1 0 0 0 .093-1.307l-1.624-2.166a10.96 10.96 0 0 0 .678-1.639l2.682-.383A1 1 0 0 0 44 40v-4a1 1 0 0 0-.858-.99l-2.682-.383a10.96 10.96 0 0 0-.678-1.639l1.624-2.166a1 1 0 0 0-.093-1.307l-2.828-2.828a1 1 0 0 0-1.307-.093l-2.166 1.624a10.96 10.96 0 0 0-1.639-.678l-.383-2.682A1 1 0 0 0 32 24h-4a1 1 0 0 0-.99.858l-.383 2.682a10.96 10.96 0 0 0-1.639.678l-2.166-1.624a1 1 0 0 0-1.307.093l-2.828 2.828a1 1 0 0 0-.093 1.307l1.624 2.166a10.96 10.96 0 0 0-.678 1.639l-2.682.383A1 1 0 0 0 16 36v4a1 1 0 0 0 .858.99zM18 36.867l2.463-.352a1 1 0 0 0 .828-.743 8.892 8.892 0 0 1 .975-2.356 1 1 0 0 0-.06-1.111l-1.492-1.99 1.6-1.6 1.99 1.492a1 1 0 0 0 1.111.06 8.892 8.892 0 0 1 2.356-.975 1 1 0 0 0 .743-.828L28.867 26h2.266l.352 2.463a1 1 0 0 0 .743.828 8.892 8.892 0 0 1 2.356.975 1 1 0 0 0 1.111-.06l1.99-1.492 1.6 1.6-1.492 1.99a1 1 0 0 0-.06 1.111 8.892 8.892 0 0 1 .975 2.356 1 1 0 0 0 .828.743l2.464.353v2.266l-2.463.352a1 1 0 0 0-.828.743 8.892 8.892 0 0 1-.975 2.356 1 1 0 0 0 .06 1.111l1.492 1.99-1.6 1.6-1.986-1.491a1 1 0 0 0-1.111-.06 8.892 8.892 0 0 1-2.356.975 1 1 0 0 0-.743.828L31.133 50h-2.266l-.352-2.463a1 1 0 0 0-.743-.828 8.892 8.892 0 0 1-2.356-.975 1 1 0 0 0-1.111.06l-1.99 1.492-1.6-1.6 1.492-1.99a1 1 0 0 0 .06-1.111 8.892 8.892 0 0 1-.975-2.356 1 1 0 0 0-.828-.743L18 39.133z"></path><path d="M30 44a6 6 0 1 0-6-6 6.006 6.006 0 0 0 6 6Zm0-10a4 4 0 1 1-4 4 4 4 0 0 1 4-4Z"></path></svg>